<svg width="20" height="16" viewBox="0 0 20 16" fill="none" xmlns="http://www.w3.org/2000/svg">
<path d="M17.015 0.400024H2.985C2.19269 0.401878 1.43346 0.717924 0.87386 1.27883C0.314264 1.83974 -2.1684e-06 2.59971 0 3.39202V12.023C-2.1684e-06 12.8153 0.314264 13.5753 0.87386 14.1362C1.43346 14.6971 2.19269 15.0132 2.985 15.015H17.015C17.8073 15.0132 18.5665 14.6971 19.1261 14.1362C19.6857 13.5753 20 12.8153 20 12.023V3.39202C20 2.59971 19.6857 1.83974 19.1261 1.27883C18.5665 0.717924 17.8073 0.401878 17.015 0.400024ZM17.015 1.93802H17.138L10 7.13802L2.862 1.93802H17.015ZM18.461 12.023C18.461 12.4073 18.3089 12.7759 18.038 13.0483C17.767 13.3208 17.3992 13.4749 17.015 13.477H2.985C2.60076 13.4749 2.23298 13.3208 1.96203 13.0483C1.69108 12.7759 1.53899 12.4073 1.539 12.023V3.39202C1.54077 3.2376 1.56676 3.0844 1.616 2.93802L9.554 8.71502C9.68575 8.8114 9.84476 8.86334 10.008 8.86334C10.1712 8.86334 10.3302 8.8114 10.462 8.71502L18.393 2.93802C18.4422 3.0844 18.4682 3.2376 18.47 3.39202L18.461 12.023Z" fill="currentColor"/>
</svg>
