<svg width="18" height="18" viewBox="0 0 18 18" fill="none" xmlns="http://www.w3.org/2000/svg">
<path d="M16 0H2C1.47005 0.00158273 0.962265 0.212805 0.587535 0.587535C0.212805 0.962265 0.00158273 1.47005 0 2V16C0.00158273 16.5299 0.212805 17.0377 0.587535 17.4125C0.962265 17.7872 1.47005 17.9984 2 18H16C16.5299 17.9984 17.0377 17.7872 17.4125 17.4125C17.7872 17.0377 17.9984 16.5299 18 16V2C17.9984 1.47005 17.7872 0.962265 17.4125 0.587535C17.0377 0.212805 16.5299 0.00158273 16 0ZM16 16H2V2H16V16ZM10.96 9.29L8.21 12.83L6.25 10.47L3.5 14H14.5L10.96 9.29Z" fill="white"/>
</svg>
