<svg width="20" height="20" viewBox="0 0 20 20" fill="none" xmlns="http://www.w3.org/2000/svg">
<path d="M13.19 6.80901C12.3443 5.96098 11.1977 5.4815 10 5.47501C9.40593 5.47263 8.81742 5.58947 8.26931 5.81861C7.7212 6.04775 7.22463 6.38453 6.80901 6.80901C6.17999 7.44182 5.75209 8.24646 5.57911 9.12179C5.40613 9.99711 5.49579 10.904 5.83681 11.7285C6.17784 12.553 6.755 13.2583 7.49575 13.7557C8.2365 14.2531 9.10777 14.5204 10 14.524C10.5941 14.5264 11.1826 14.4096 11.7307 14.1804C12.2788 13.9513 12.7754 13.6145 13.191 13.19C14.0393 12.344 14.5188 11.197 14.525 9.99901C14.5271 9.40504 14.4101 8.81667 14.1808 8.26874C13.9514 7.7208 13.6146 7.22443 13.19 6.80901Z" fill="white"/>
<path d="M10 3.757C10.1997 3.75341 10.3901 3.6725 10.5313 3.5313C10.6725 3.39011 10.7534 3.19965 10.757 3V0.757C10.757 0.556231 10.6773 0.363685 10.5353 0.22172C10.3933 0.0797551 10.2008 0 10 0C9.79925 0 9.60669 0.0797551 9.46472 0.22172C9.32276 0.363685 9.24301 0.556231 9.24301 0.757V3C9.2466 3.19965 9.32751 3.39011 9.4687 3.5313C9.6099 3.6725 9.80037 3.75341 10 3.757Z" fill="white"/>
<path d="M15.194 5.88299L16.794 4.28299C16.933 4.14402 17.011 3.95553 17.011 3.75899C17.011 3.56245 16.933 3.37396 16.794 3.23499C16.7252 3.16618 16.6435 3.11159 16.5536 3.07435C16.4637 3.03711 16.3673 3.01794 16.27 3.01794C16.0735 3.01794 15.885 3.09602 15.746 3.23499L14.146 4.83499C14.007 4.97396 13.929 5.16245 13.929 5.35899C13.929 5.55553 14.007 5.74402 14.146 5.88299C14.285 6.02197 14.4735 6.10004 14.67 6.10004C14.8665 6.10004 15.055 6.02197 15.194 5.88299Z" fill="white"/>
<path d="M19.243 9.24304H17C16.7992 9.24304 16.6067 9.32279 16.4647 9.46475C16.3228 9.60672 16.243 9.79928 16.243 10C16.243 10.2008 16.3228 10.3934 16.4647 10.5353C16.6067 10.6773 16.7992 10.757 17 10.757H19.243C19.4438 10.757 19.6363 10.6773 19.7783 10.5353C19.9203 10.3934 20 10.2008 20 10C20 9.79928 19.9203 9.60672 19.7783 9.46475C19.6363 9.32279 19.4438 9.24304 19.243 9.24304Z" fill="white"/>
<path d="M15.165 14.116C15.026 13.977 14.8375 13.8989 14.641 13.8989C14.4445 13.8989 14.256 13.977 14.117 14.116C13.978 14.2549 13.9 14.4434 13.9 14.64C13.9 14.8365 13.978 15.025 14.117 15.164L15.717 16.764C15.856 16.903 16.0445 16.981 16.241 16.981C16.4375 16.981 16.626 16.903 16.765 16.764C16.904 16.625 16.9821 16.4365 16.9821 16.24C16.9821 16.0434 16.904 15.8549 16.765 15.716L15.165 14.116Z" fill="white"/>
<path d="M10 16.243C9.80037 16.2466 9.6099 16.3275 9.4687 16.4687C9.32751 16.6099 9.2466 16.8004 9.24301 17V19.243C9.24301 19.4438 9.32276 19.6364 9.46472 19.7783C9.60669 19.9203 9.79925 20 10 20C10.2008 20 10.3933 19.9203 10.5353 19.7783C10.6773 19.6364 10.757 19.4438 10.757 19.243V17C10.7534 16.8004 10.6725 16.6099 10.5313 16.4687C10.3901 16.3275 10.1997 16.2466 10 16.243Z" fill="white"/>
<path d="M4.80499 14.116L3.20499 15.716C3.13618 15.7848 3.08159 15.8665 3.04435 15.9564C3.00711 16.0463 2.98795 16.1427 2.98795 16.24C2.98795 16.3373 3.00711 16.4337 3.04435 16.5236C3.08159 16.6135 3.13618 16.6952 3.20499 16.764C3.27381 16.8328 3.3555 16.8874 3.44541 16.9246C3.53532 16.9618 3.63168 16.981 3.72899 16.981C3.82631 16.981 3.92267 16.9618 4.01258 16.9246C4.10249 16.8874 4.18418 16.8328 4.25299 16.764L5.85299 15.164C5.99197 15.025 6.07004 14.8365 6.07004 14.64C6.07004 14.4434 5.99197 14.2549 5.85299 14.116C5.71402 13.977 5.52553 13.8989 5.32899 13.8989C5.13246 13.8989 4.94397 13.977 4.80499 14.116Z" fill="white"/>
<path d="M3.757 10C3.75341 9.8004 3.6725 9.60993 3.5313 9.46873C3.39011 9.32754 3.19965 9.24664 3 9.24304H0.757C0.556231 9.24304 0.363685 9.32279 0.22172 9.46475C0.0797551 9.60672 0 9.79928 0 10C0 10.2008 0.0797551 10.3934 0.22172 10.5353C0.363685 10.6773 0.556231 10.757 0.757 10.757H3C3.19965 10.7534 3.39011 10.6725 3.5313 10.5313C3.6725 10.3901 3.75341 10.1997 3.757 10Z" fill="white"/>
<path d="M4.80499 5.88299C4.94397 6.02197 5.13246 6.10004 5.32899 6.10004C5.52553 6.10004 5.71402 6.02197 5.85299 5.88299C5.99197 5.74402 6.07004 5.55553 6.07004 5.35899C6.07004 5.16245 5.99197 4.97396 5.85299 4.83499L4.25299 3.23499C4.18418 3.16618 4.10249 3.11159 4.01258 3.07435C3.92267 3.03711 3.82631 3.01794 3.72899 3.01794C3.63168 3.01794 3.53532 3.03711 3.44541 3.07435C3.3555 3.11159 3.27381 3.16618 3.20499 3.23499C3.13618 3.3038 3.08159 3.38549 3.04435 3.4754C3.00711 3.56531 2.98795 3.66168 2.98795 3.75899C2.98795 3.85631 3.00711 3.95267 3.04435 4.04258C3.08159 4.13248 3.13618 4.21418 3.20499 4.28299L4.80499 5.88299Z" fill="white"/>
</svg>
