<svg width="20" height="20" viewBox="0 0 20 20" fill="none" xmlns="http://www.w3.org/2000/svg">
<path d="M19.5111 11.3962C19.4097 11.3725 19.3044 11.3718 19.2027 11.394C19.101 11.4162 19.0055 11.4608 18.923 11.5246C18.2489 12.1012 17.4784 12.5533 16.6473 12.8601C15.8224 13.1734 14.9467 13.3302 14.0648 13.3224C13.0773 13.3237 12.0992 13.1293 11.1865 12.7503C10.2739 12.3712 9.44469 11.8151 8.74638 11.1136C8.04807 10.4122 7.49439 9.5793 7.11706 8.66259C6.73972 7.74589 6.54615 6.76341 6.54742 5.77144C6.5502 4.92437 6.68832 4.08323 6.95653 3.28013C7.22656 2.47415 7.64267 1.72529 8.18386 1.07133C8.23786 1.004 8.27806 0.926591 8.30216 0.84358C8.32626 0.760569 8.33377 0.67359 8.32426 0.587651C8.31475 0.501712 8.28842 0.418511 8.24677 0.342838C8.20512 0.267164 8.14898 0.200513 8.08158 0.146723C7.99913 0.0829349 7.9036 0.0383278 7.8019 0.0161203C7.7002 -0.0060871 7.59486 -0.00534107 7.49348 0.0183046C5.34143 0.613067 3.4394 1.89276 2.07278 3.66538C1.15892 4.86948 0.524272 6.26336 0.215161 7.74528C-0.09395 9.22719 -0.0697243 10.7597 0.28607 12.231C0.641864 13.7023 1.32025 15.0753 2.2717 16.2496C3.22315 17.424 4.42367 18.3701 5.7856 19.0189C7.14754 19.6678 8.63653 20.0029 10.1439 20C11.6512 19.997 13.1389 19.656 14.4983 19.0018C15.8577 18.3476 17.0545 17.3968 18.0014 16.2187C18.9483 15.0406 19.6213 13.6651 19.9713 12.1924C19.9973 12.1097 20.0057 12.0226 19.9962 11.9365C19.9867 11.8503 19.9594 11.7672 19.9161 11.6923C19.8728 11.6173 19.8144 11.5523 19.7447 11.5013C19.6749 11.4503 19.5954 11.4145 19.5111 11.3962Z" fill="currentColor"/>
</svg>
