<svg width="20" height="19" viewBox="0 0 20 19" fill="none" xmlns="http://www.w3.org/2000/svg">
<path d="M14.5 1.01695e-06C13.6441 0.00652858 12.7996 0.196458 12.0233 0.556986C11.2471 0.917515 10.5571 1.44027 10 2.09C9.44286 1.44027 8.75292 0.917515 7.97666 0.556986C7.2004 0.196458 6.35587 0.00652858 5.5 1.01695e-06C4.77576 -0.00708089 4.05738 0.130345 3.38689 0.404238C2.7164 0.678131 2.10727 1.08299 1.59513 1.59513C1.08299 2.10727 0.678131 2.7164 0.404238 3.38689C0.130345 4.05738 -0.00708089 4.77576 1.01695e-06 5.5C1.01695e-06 9.28 3.4 12.36 8.55 17.04L10 18.35L11.45 17.03C16.6 12.36 20 9.28 20 5.5C20.0071 4.77576 19.8697 4.05738 19.5958 3.38689C19.3219 2.7164 18.917 2.10727 18.4049 1.59513C17.8927 1.08299 17.2836 0.678131 16.6131 0.404238C15.9426 0.130345 15.2242 -0.00708089 14.5 1.01695e-06ZM10.1 15.55L10 15.65L9.9 15.55C5.14 11.24 2 8.39 2 5.5C1.98876 5.0373 2.07161 4.57715 2.24352 4.14742C2.41543 3.7177 2.67283 3.32737 3.0001 3.0001C3.32737 2.67283 3.7177 2.41543 4.14742 2.24352C4.57715 2.07161 5.0373 1.98876 5.5 2C6.26008 2.0037 7.00258 2.22891 7.63665 2.64806C8.27071 3.06722 8.76882 3.66214 9.07 4.36H10.94C11.238 3.66186 11.7339 3.06629 12.3666 2.64688C12.9993 2.22746 13.7409 2.00258 14.5 2C14.9627 1.98876 15.4229 2.07161 15.8526 2.24352C16.2823 2.41543 16.6726 2.67283 16.9999 3.0001C17.3272 3.32737 17.5846 3.7177 17.7565 4.14742C17.9284 4.57715 18.0112 5.0373 18 5.5C18 8.39 14.86 11.24 10.1 15.55Z" fill="currentColor"/>
</svg>
