<svg width="23" height="18" viewBox="0 0 23 18" fill="none" xmlns="http://www.w3.org/2000/svg">
<path d="M14.8289 2.28882e-05V9.78802C14.8641 11.107 14.5257 12.409 13.8529 13.544C13.2146 14.5845 12.2962 15.4242 11.2029 15.967C10.0246 16.5431 8.72633 16.8313 7.41491 16.808C6.09233 16.8339 4.78247 16.5457 3.59291 15.967C2.50214 15.4271 1.58829 14.5868 0.95891 13.545C0.296355 12.4061 -0.0357318 11.1051 -9.04282e-05 9.78802V-0.000976562H4.16291L4.19491 9.04102C4.11458 10.0718 4.42917 11.0946 5.07491 11.902C5.37506 12.2174 5.73932 12.4647 6.14315 12.6274C6.54697 12.7901 6.98098 12.8643 7.41591 12.845C7.84809 12.8611 8.27877 12.7854 8.67954 12.6229C9.08031 12.4603 9.44205 12.2146 9.74091 11.902C10.3964 11.0988 10.7166 10.0736 10.6349 9.04002V-0.000976562L14.8289 2.28882e-05ZM19.8559 11.9C20.1981 11.8952 20.5376 11.9604 20.8535 12.0918C21.1695 12.2232 21.4551 12.418 21.6929 12.664C21.94 12.9025 22.1354 13.1893 22.267 13.5065C22.3986 13.8237 22.4636 14.1646 22.4579 14.508C22.4622 14.8495 22.3967 15.1882 22.2653 15.5035C22.1339 15.8187 21.9395 16.1037 21.6939 16.341C21.4561 16.5871 21.1705 16.7818 20.8545 16.9132C20.5386 17.0446 20.1991 17.1099 19.8569 17.105C19.5146 17.11 19.1749 17.0448 18.8588 16.9134C18.5426 16.782 18.2568 16.5872 18.0189 16.341C17.7733 16.1037 17.5789 15.8187 17.4475 15.5035C17.3161 15.1882 17.2506 14.8495 17.2549 14.508C17.25 14.1659 17.3153 13.8264 17.4467 13.5104C17.5781 13.1945 17.7729 12.9088 18.0189 12.671C18.2564 12.4239 18.542 12.2282 18.8582 12.0959C19.1743 11.9637 19.5142 11.8977 19.8569 11.902L19.8559 11.9Z" fill="currentColor"/>
</svg>
